<?xml version="1.0" standalone="no"?><!DOCTYPE svg PUBLIC "-//W3C//DTD SVG 1.1//EN" "http://www.w3.org/Graphics/SVG/1.1/DTD/svg11.dtd"><svg t="1714623808335" class="icon" viewBox="0 0 1024 1024" version="1.1" xmlns="http://www.w3.org/2000/svg" p-id="2038" xmlns:xlink="http://www.w3.org/1999/xlink" width="200" height="200"><path d="M506.67 520h-33.26c-0.99 0-1.79-0.8-1.79-1.79V125.79c0-0.99 0.8-1.79 1.79-1.79h33.26c0.99 0 1.79 0.8 1.79 1.79v392.42c0 0.99-0.8 1.79-1.79 1.79z" fill="#8DD2FC" p-id="2039"></path><path d="M503.24 293.27l-23.52 23.52c-0.7 0.7-1.83 0.7-2.53 0L375.53 215.12c-0.7-0.7-0.7-1.83 0-2.53l23.52-23.52c0.7-0.7 1.83-0.7 2.53 0l101.66 101.66c0.7 0.71 0.7 1.84 0 2.54z" fill="#8DD2FC" p-id="2040"></path><path d="M476.84 293.27l23.52 23.52c0.7 0.7 1.83 0.7 2.53 0l101.66-101.66c0.7-0.7 0.7-1.83 0-2.53l-23.52-23.52c-0.7-0.7-1.83-0.7-2.53 0L476.84 290.74c-0.7 0.7-0.7 1.83 0 2.53zM498.35 505.6l-16.63 28.8c-0.49 0.86-1.59 1.15-2.45 0.66L139.43 338.85a1.796 1.796 0 0 1-0.66-2.45l16.63-28.8c0.49-0.86 1.59-1.15 2.45-0.66L497.7 503.15c0.85 0.5 1.15 1.59 0.65 2.45z" fill="#8DD2FC" p-id="2041"></path><path d="M300.28 395.2l8.61 32.12c0.26 0.96-0.31 1.94-1.27 2.19l-138.87 37.21c-0.96 0.26-1.94-0.31-2.19-1.27l-8.61-32.12c-0.26-0.96 0.31-1.94 1.27-2.19l138.87-37.21c0.96-0.25 1.94 0.32 2.19 1.27z" fill="#8DD2FC" p-id="2042"></path><path d="M287.08 418.07l32.12-8.61c0.96-0.26 1.52-1.24 1.27-2.19L283.26 268.4a1.795 1.795 0 0 0-2.19-1.27l-32.12 8.61c-0.96 0.26-1.52 1.24-1.27 2.19l37.21 138.87a1.79 1.79 0 0 0 2.19 1.27z" fill="#8DD2FC" p-id="2043"></path><path d="M481.72 505.6l16.63 28.8c0.49 0.86 0.2 1.95-0.66 2.45L157.85 733.06c-0.86 0.49-1.95 0.2-2.45-0.66l-16.63-28.8c-0.49-0.86-0.2-1.95 0.66-2.45l339.84-196.21c0.87-0.49 1.96-0.2 2.45 0.66z" fill="#8DD2FC" p-id="2044"></path><path d="M287.08 621.93l32.12 8.61c0.96 0.26 1.52 1.24 1.27 2.19L283.26 771.6c-0.26 0.96-1.24 1.52-2.19 1.27l-32.12-8.61a1.795 1.795 0 0 1-1.27-2.19l37.21-138.87a1.79 1.79 0 0 1 2.19-1.27z" fill="#8DD2FC" p-id="2045"></path><path d="M300.28 644.8l8.61-32.12c0.26-0.96-0.31-1.94-1.27-2.19l-138.87-37.21c-0.96-0.26-1.94 0.31-2.19 1.27l-8.61 32.12c-0.26 0.96 0.31 1.94 1.27 2.19l138.87 37.21c0.96 0.25 1.94-0.32 2.19-1.27z" fill="#8DD2FC" p-id="2046"></path><path d="M473.41 520h33.26c0.99 0 1.79 0.8 1.79 1.79v392.42c0 0.99-0.8 1.79-1.79 1.79h-33.26c-0.99 0-1.79-0.8-1.79-1.79V521.79c0-0.99 0.8-1.79 1.79-1.79z" fill="#8DD2FC" p-id="2047"></path><path d="M476.84 746.73l23.52-23.52c0.7-0.7 1.83-0.7 2.53 0l101.66 101.66c0.7 0.7 0.7 1.83 0 2.53l-23.52 23.52c-0.7 0.7-1.83 0.7-2.53 0L476.84 749.26c-0.7-0.7-0.7-1.83 0-2.53z" fill="#8DD2FC" p-id="2048"></path><path d="M503.24 746.73l-23.52-23.52c-0.7-0.7-1.83-0.7-2.53 0L375.53 824.88c-0.7 0.7-0.7 1.83 0 2.53l23.52 23.52c0.7 0.7 1.83 0.7 2.53 0l101.66-101.66c0.7-0.71 0.7-1.84 0-2.54z" fill="#8DD2FC" p-id="2049"></path><path d="M481.72 534.4l16.63-28.8c0.49-0.86 1.59-1.15 2.45-0.66l339.84 196.21c0.86 0.49 1.15 1.59 0.66 2.45l-16.63 28.8c-0.49 0.86-1.59 1.15-2.45 0.66L482.38 536.85c-0.86-0.5-1.15-1.59-0.66-2.45z" fill="#8DD2FC" p-id="2050"></path><path d="M679.79 644.8l-8.61-32.12c-0.26-0.96 0.31-1.94 1.27-2.19l138.87-37.21c0.96-0.26 1.94 0.31 2.19 1.27l8.61 32.12c0.26 0.96-0.31 1.94-1.27 2.19l-138.87 37.21c-0.95 0.25-1.93-0.32-2.19-1.27z" fill="#8DD2FC" p-id="2051"></path><path d="M693 621.93l-32.12 8.61c-0.96 0.26-1.52 1.24-1.27 2.19l37.21 138.87c0.26 0.96 1.24 1.52 2.19 1.27l32.12-8.61c0.96-0.26 1.52-1.24 1.27-2.19L695.19 623.2a1.795 1.795 0 0 0-2.19-1.27z" fill="#8DD2FC" p-id="2052"></path><path d="M498.35 534.4l-16.63-28.8c-0.49-0.86-0.2-1.95 0.66-2.45l339.84-196.21c0.86-0.49 1.95-0.2 2.45 0.66l16.63 28.8c0.49 0.86 0.2 1.95-0.66 2.45L500.8 535.06c-0.86 0.49-1.95 0.2-2.45-0.66z" fill="#8DD2FC" p-id="2053"></path><path d="M693 418.07l-32.12-8.61a1.795 1.795 0 0 1-1.27-2.19l37.21-138.87c0.26-0.96 1.24-1.52 2.19-1.27l32.12 8.61c0.96 0.26 1.52 1.24 1.27 2.19L695.19 416.8c-0.26 0.96-1.24 1.52-2.19 1.27z" fill="#8DD2FC" p-id="2054"></path><path d="M679.79 395.2l-8.61 32.12c-0.26 0.96 0.31 1.94 1.27 2.19l138.87 37.21c0.96 0.26 1.94-0.31 2.19-1.27l8.61-32.12c0.26-0.96-0.31-1.94-1.27-2.19l-138.87-37.21c-0.95-0.25-1.93 0.32-2.19 1.27z" fill="#8DD2FC" p-id="2055"></path></svg>